<mxfile host="app.diagrams.net" modified="2021-10-29T11:47:32.390Z" agent="5.0 (Windows NT 10.0; Win64; x64) AppleWebKit/537.36 (KHTML, like Gecko) Chrome/95.0.4638.69 Safari/537.36" etag="FWDoGBR7wiXws4QP8tKZ" version="15.6.0" type="github">
  <diagram id="prtHgNgQTEPvFCAcTncT" name="Page-1">
    <mxGraphModel dx="1673" dy="896" grid="1" gridSize="10" guides="1" tooltips="1" connect="1" arrows="1" fold="1" page="1" pageScale="1" pageWidth="827" pageHeight="1169" math="0" shadow="0">
      <root>
        <mxCell id="0" />
        <mxCell id="1" parent="0" />
        <mxCell id="dNxyNK7c78bLwvsdeMH5-19" value="ABERTURA DE VAGAS" style="swimlane;html=1;childLayout=stackLayout;resizeParent=1;resizeParentMax=0;horizontal=0;startSize=20;horizontalStack=0;" parent="1" vertex="1">
          <mxGeometry x="120" y="120" width="680" height="490" as="geometry" />
        </mxCell>
        <mxCell id="dNxyNK7c78bLwvsdeMH5-20" value="GESTOR - SOLICITANTE" style="swimlane;html=1;startSize=20;horizontal=0;" parent="dNxyNK7c78bLwvsdeMH5-19" vertex="1">
          <mxGeometry x="20" width="660" height="130" as="geometry" />
        </mxCell>
        <mxCell id="dNxyNK7c78bLwvsdeMH5-25" value="" style="edgeStyle=orthogonalEdgeStyle;rounded=0;orthogonalLoop=1;jettySize=auto;html=1;" parent="dNxyNK7c78bLwvsdeMH5-20" source="dNxyNK7c78bLwvsdeMH5-23" target="dNxyNK7c78bLwvsdeMH5-24" edge="1">
          <mxGeometry relative="1" as="geometry" />
        </mxCell>
        <mxCell id="dNxyNK7c78bLwvsdeMH5-23" value="Início" style="ellipse;whiteSpace=wrap;html=1;" parent="dNxyNK7c78bLwvsdeMH5-20" vertex="1">
          <mxGeometry x="40" y="40" width="40" height="40" as="geometry" />
        </mxCell>
        <mxCell id="dNxyNK7c78bLwvsdeMH5-24" value="Solicita a vaga" style="rounded=0;whiteSpace=wrap;html=1;fontFamily=Helvetica;fontSize=12;fontColor=#000000;align=center;" parent="dNxyNK7c78bLwvsdeMH5-20" vertex="1">
          <mxGeometry x="120" y="30" width="80" height="60" as="geometry" />
        </mxCell>
        <mxCell id="dNxyNK7c78bLwvsdeMH5-33" value="" style="edgeStyle=orthogonalEdgeStyle;rounded=0;orthogonalLoop=1;jettySize=auto;html=1;endArrow=classic;endFill=1;" parent="dNxyNK7c78bLwvsdeMH5-20" source="dNxyNK7c78bLwvsdeMH5-30" target="dNxyNK7c78bLwvsdeMH5-32" edge="1">
          <mxGeometry relative="1" as="geometry" />
        </mxCell>
        <mxCell id="dNxyNK7c78bLwvsdeMH5-30" value="Gestor recebe o profissional" style="rounded=0;whiteSpace=wrap;html=1;fontFamily=Helvetica;fontSize=12;fontColor=#000000;align=center;" parent="dNxyNK7c78bLwvsdeMH5-20" vertex="1">
          <mxGeometry x="488" y="30" width="80" height="60" as="geometry" />
        </mxCell>
        <mxCell id="dNxyNK7c78bLwvsdeMH5-32" value="Fim" style="ellipse;whiteSpace=wrap;html=1;" parent="dNxyNK7c78bLwvsdeMH5-20" vertex="1">
          <mxGeometry x="600" y="40" width="40" height="40" as="geometry" />
        </mxCell>
        <mxCell id="dNxyNK7c78bLwvsdeMH5-21" value="COMPRAS" style="swimlane;html=1;startSize=20;horizontal=0;" parent="dNxyNK7c78bLwvsdeMH5-19" vertex="1">
          <mxGeometry x="20" y="130" width="660" height="180" as="geometry" />
        </mxCell>
        <mxCell id="nxtkAqsVjzo1t75S3AbN-3" value="" style="edgeStyle=orthogonalEdgeStyle;rounded=0;orthogonalLoop=1;jettySize=auto;html=1;fontSize=9;" edge="1" parent="dNxyNK7c78bLwvsdeMH5-21" source="dNxyNK7c78bLwvsdeMH5-28" target="nxtkAqsVjzo1t75S3AbN-2">
          <mxGeometry relative="1" as="geometry" />
        </mxCell>
        <mxCell id="dNxyNK7c78bLwvsdeMH5-28" value="&lt;font style=&quot;font-size: 9px&quot;&gt;Tem profissional disponível internamente?&lt;/font&gt;" style="rhombus;whiteSpace=wrap;html=1;fontFamily=Helvetica;fontSize=12;fontColor=#000000;align=center;" parent="dNxyNK7c78bLwvsdeMH5-21" vertex="1">
          <mxGeometry x="212" y="40" width="100" height="80" as="geometry" />
        </mxCell>
        <mxCell id="nxtkAqsVjzo1t75S3AbN-2" value="Alocação do profissional para a vaga requisitada" style="whiteSpace=wrap;html=1;" vertex="1" parent="dNxyNK7c78bLwvsdeMH5-21">
          <mxGeometry x="372" y="50" width="120" height="60" as="geometry" />
        </mxCell>
        <mxCell id="nxtkAqsVjzo1t75S3AbN-5" value="SIM" style="text;html=1;strokeColor=none;fillColor=none;align=center;verticalAlign=middle;whiteSpace=wrap;rounded=0;fontSize=9;" vertex="1" parent="dNxyNK7c78bLwvsdeMH5-21">
          <mxGeometry x="309" y="50" width="60" height="30" as="geometry" />
        </mxCell>
        <mxCell id="nxtkAqsVjzo1t75S3AbN-12" value="" style="edgeStyle=orthogonalEdgeStyle;rounded=0;orthogonalLoop=1;jettySize=auto;html=1;fontSize=9;" edge="1" parent="dNxyNK7c78bLwvsdeMH5-21" source="nxtkAqsVjzo1t75S3AbN-9" target="dNxyNK7c78bLwvsdeMH5-28">
          <mxGeometry relative="1" as="geometry" />
        </mxCell>
        <mxCell id="nxtkAqsVjzo1t75S3AbN-9" value="Define modelo de contratação/alocação&lt;br&gt;(CLT ou PJ)" style="whiteSpace=wrap;html=1;rounded=0;" vertex="1" parent="dNxyNK7c78bLwvsdeMH5-21">
          <mxGeometry x="55" y="50" width="120" height="60" as="geometry" />
        </mxCell>
        <mxCell id="nxtkAqsVjzo1t75S3AbN-14" value="NÃO" style="text;html=1;strokeColor=none;fillColor=none;align=center;verticalAlign=middle;whiteSpace=wrap;rounded=0;fontSize=9;" vertex="1" parent="dNxyNK7c78bLwvsdeMH5-21">
          <mxGeometry x="155" y="140" width="60" height="30" as="geometry" />
        </mxCell>
        <mxCell id="nxtkAqsVjzo1t75S3AbN-4" value="" style="edgeStyle=orthogonalEdgeStyle;rounded=0;orthogonalLoop=1;jettySize=auto;html=1;fontSize=9;exitX=0.5;exitY=0;exitDx=0;exitDy=0;" edge="1" parent="dNxyNK7c78bLwvsdeMH5-19" source="nxtkAqsVjzo1t75S3AbN-2" target="dNxyNK7c78bLwvsdeMH5-30">
          <mxGeometry relative="1" as="geometry">
            <Array as="points">
              <mxPoint x="452" y="60" />
            </Array>
          </mxGeometry>
        </mxCell>
        <mxCell id="nxtkAqsVjzo1t75S3AbN-10" value="" style="edgeStyle=orthogonalEdgeStyle;rounded=0;orthogonalLoop=1;jettySize=auto;html=1;fontSize=9;" edge="1" parent="dNxyNK7c78bLwvsdeMH5-19" source="dNxyNK7c78bLwvsdeMH5-24" target="nxtkAqsVjzo1t75S3AbN-9">
          <mxGeometry relative="1" as="geometry">
            <Array as="points">
              <mxPoint x="180" y="150" />
              <mxPoint x="120" y="150" />
            </Array>
          </mxGeometry>
        </mxCell>
        <mxCell id="nxtkAqsVjzo1t75S3AbN-13" value="" style="edgeStyle=orthogonalEdgeStyle;rounded=0;orthogonalLoop=1;jettySize=auto;html=1;fontSize=9;entryX=0.5;entryY=0;entryDx=0;entryDy=0;exitX=0.5;exitY=1;exitDx=0;exitDy=0;" edge="1" parent="dNxyNK7c78bLwvsdeMH5-19" source="dNxyNK7c78bLwvsdeMH5-28" target="nxtkAqsVjzo1t75S3AbN-7">
          <mxGeometry relative="1" as="geometry">
            <Array as="points">
              <mxPoint x="282" y="270" />
              <mxPoint x="170" y="270" />
            </Array>
          </mxGeometry>
        </mxCell>
        <mxCell id="dNxyNK7c78bLwvsdeMH5-22" value="RECURSOS HUMANOS" style="swimlane;html=1;startSize=20;horizontal=0;" parent="dNxyNK7c78bLwvsdeMH5-19" vertex="1">
          <mxGeometry x="20" y="310" width="660" height="180" as="geometry" />
        </mxCell>
        <mxCell id="dNxyNK7c78bLwvsdeMH5-34" value="Contrata o profissional ou consultor" style="rounded=0;whiteSpace=wrap;html=1;fontFamily=Helvetica;fontSize=12;fontColor=#000000;align=center;" parent="dNxyNK7c78bLwvsdeMH5-22" vertex="1">
          <mxGeometry x="314" y="50" width="120" height="60" as="geometry" />
        </mxCell>
        <mxCell id="nxtkAqsVjzo1t75S3AbN-15" value="" style="edgeStyle=orthogonalEdgeStyle;rounded=0;orthogonalLoop=1;jettySize=auto;html=1;fontSize=9;" edge="1" parent="dNxyNK7c78bLwvsdeMH5-22" source="nxtkAqsVjzo1t75S3AbN-7" target="dNxyNK7c78bLwvsdeMH5-34">
          <mxGeometry relative="1" as="geometry" />
        </mxCell>
        <mxCell id="nxtkAqsVjzo1t75S3AbN-7" value="Abre a vaga para processos seletivos" style="whiteSpace=wrap;html=1;" vertex="1" parent="dNxyNK7c78bLwvsdeMH5-22">
          <mxGeometry x="90" y="50" width="120" height="60" as="geometry" />
        </mxCell>
        <mxCell id="nxtkAqsVjzo1t75S3AbN-16" value="" style="edgeStyle=orthogonalEdgeStyle;rounded=0;orthogonalLoop=1;jettySize=auto;html=1;fontSize=9;entryX=0.5;entryY=1;entryDx=0;entryDy=0;exitX=0.5;exitY=0;exitDx=0;exitDy=0;" edge="1" parent="dNxyNK7c78bLwvsdeMH5-19" source="dNxyNK7c78bLwvsdeMH5-34" target="dNxyNK7c78bLwvsdeMH5-30">
          <mxGeometry relative="1" as="geometry">
            <mxPoint x="350" y="90" as="targetPoint" />
            <Array as="points">
              <mxPoint x="394" y="340" />
              <mxPoint x="548" y="340" />
            </Array>
          </mxGeometry>
        </mxCell>
      </root>
    </mxGraphModel>
  </diagram>
</mxfile>
